<svg width="25" height="22" viewBox="0 0 25 22" fill="none" xmlns="http://www.w3.org/2000/svg">
<path d="M9.82029 0C8.83759 0 7.89103 0.416882 7.16939 1.16747L1.25445 7.31981C-0.41815 9.05955 -0.41815 12.0342 1.25445 13.7739L7.16939 19.9262C7.89103 20.6768 8.83759 21.0938 9.82029 21.0938H21.0946C23.2515 21.0938 25 19.1262 25 16.6992V4.39453C25 1.9675 23.2515 0 21.0946 0H9.82029ZM11.1695 5.53089C11.4745 5.18766 11.9691 5.18766 12.2741 5.53089L15.6271 9.30394L18.9801 5.53089C19.2852 5.18766 19.7798 5.18766 20.0849 5.53089C20.3898 5.87412 20.3898 6.43062 20.0849 6.77385L16.7317 10.5469L20.0849 14.32C20.3898 14.6631 20.3898 15.2197 20.0849 15.563C19.7798 15.9061 19.2852 15.9061 18.9801 15.563L15.6271 11.7898L12.2741 15.563C11.9691 15.9061 11.4745 15.9061 11.1695 15.563C10.8645 15.2197 10.8645 14.6631 11.1695 14.32L14.5226 10.5469L11.1695 6.77385C10.8645 6.43062 10.8645 5.87412 11.1695 5.53089Z" fill="#B12E21"/>
</svg>
