<svg width="20" height="20" viewBox="0 0 20 20" fill="none" xmlns="http://www.w3.org/2000/svg">
<path d="M10 0C15.5229 0 20 4.47715 20 10C20 15.5229 15.5229 20 10 20C4.47715 20 0 15.5229 0 10C0 4.47715 4.47715 0 10 0ZM10 5C9.69318 5 9.43799 5.2211 9.38507 5.51266L9.375 5.625V9.375H5.625C5.27983 9.375 5 9.65483 5 10C5 10.3068 5.2211 10.562 5.51266 10.6149L5.625 10.625H9.375V14.375C9.375 14.7201 9.65483 15 10 15C10.3068 15 10.562 14.7789 10.6149 14.4873L10.625 14.375V10.625H14.375C14.7201 10.625 15 10.3451 15 10C15 9.69318 14.7789 9.43799 14.4873 9.38507L14.375 9.375H10.625V5.625C10.625 5.27983 10.3451 5 10 5Z" fill="#9E1711"/>
</svg>
