<svg width="30" height="31" viewBox="0 0 30 31" fill="none" xmlns="http://www.w3.org/2000/svg">
<path d="M24.5833 0C27.5749 0 30 2.49645 30 5.57598V25.3064C30 28.3859 27.5749 30.8824 24.5833 30.8824H5.41667C2.42512 30.8824 0 28.3859 0 25.3064V5.57598C0 2.49645 2.42512 0 5.41667 0H24.5833ZM13.3333 6.86275C9.65143 6.86275 6.66667 9.9353 6.66667 13.7255C6.66667 17.5157 9.65143 20.5882 13.3333 20.5882C14.569 20.5882 15.7261 20.2422 16.7183 19.6391L20.4882 23.5171L20.6452 23.6598C21.299 24.1831 22.2444 24.1356 22.8452 23.5171C23.4961 22.8471 23.4961 21.7608 22.8452 21.0907L19.0779 17.21C19.6638 16.1887 20 14.9975 20 13.7255C20 9.9353 17.0152 6.86275 13.3333 6.86275ZM13.3333 10.2941C15.1743 10.2941 16.6667 11.8304 16.6667 13.7255C16.6667 15.6206 15.1743 17.1569 13.3333 17.1569C11.4924 17.1569 10 15.6206 10 13.7255C10 11.8304 11.4924 10.2941 13.3333 10.2941Z" fill="#8B0001"/>
</svg>
